<svg xmlns="http://www.w3.org/2000/svg" version="1.1" xmlns:xlink="http://www.w3.org/1999/xlink" xmlns:svgjs="http://svgjs.dev/svgjs" width="2560" height="1440" preserveAspectRatio="none" viewBox="0 0 2560 1440">
    <g fill="none">
        <path d="M176.94 133.31L296.46 202.31L296.46 340.31L176.94 409.31L57.43 340.31L57.43 202.31zM176.94 961.31L296.46 1030.31L296.46 1168.31L176.94 1237.31L57.43 1168.31L57.43 1030.31zM57.43 1168.31L176.94 1237.31L176.94 1375.31L57.43 1444.31L-62.08 1375.31L-62.08 1237.31zM415.97 133.31L535.49 202.31L535.49 340.31L415.97 409.31L296.46 340.31L296.46 202.31zM296.46 754.31L415.97 823.31L415.97 961.31L296.46 1030.31L176.94 961.31L176.94 823.31zM415.97 1375.31L535.49 1444.31L535.49 1582.31L415.97 1651.31L296.46 1582.31L296.46 1444.31zM535.49 -73.69L655 -4.69L655 133.31L535.49 202.31L415.97 133.31L415.97 -4.69zM655 133.31L774.52 202.31L774.52 340.31L655 409.31L535.49 340.31L535.49 202.31zM655 547.31L774.52 616.31L774.52 754.31L655 823.31L535.49 754.31L535.49 616.31zM535.49 754.31L655 823.31L655 961.31L535.49 1030.31L415.97 961.31L415.97 823.31zM774.52 -73.69L894.03 -4.69L894.03 133.31L774.52 202.31L655 133.31L655 -4.69zM894.03 133.31L1013.55 202.31L1013.55 340.31L894.03 409.31L774.52 340.31L774.52 202.31zM774.52 1168.31L894.03 1237.31L894.03 1375.31L774.52 1444.31L655 1375.31L655 1237.31zM1013.55 754.31L1133.06 823.31L1133.06 961.31L1013.55 1030.31L894.03 961.31L894.03 823.31zM1133.06 961.31L1252.58 1030.31L1252.58 1168.31L1133.06 1237.31L1013.55 1168.31L1013.55 1030.31zM1013.55 1168.31L1133.06 1237.31L1133.06 1375.31L1013.55 1444.31L894.03 1375.31L894.03 1237.31zM1372.09 1375.31L1491.61 1444.31L1491.61 1582.31L1372.09 1651.31L1252.58 1582.31L1252.58 1444.31zM1611.12 1375.31L1730.64 1444.31L1730.64 1582.31L1611.12 1651.31L1491.61 1582.31L1491.61 1444.31zM1730.64 340.31L1850.15 409.31L1850.15 547.31L1730.64 616.31L1611.12 547.31L1611.12 409.31zM1850.15 961.31L1969.67 1030.31L1969.67 1168.31L1850.15 1237.31L1730.64 1168.31L1730.64 1030.31zM1969.67 -73.69L2089.18 -4.69L2089.18 133.31L1969.67 202.31L1850.15 133.31L1850.15 -4.69zM2328.21 1375.31L2447.73 1444.31L2447.73 1582.31L2328.21 1651.31L2208.7 1582.31L2208.7 1444.31zM2447.73 1168.31L2567.24 1237.31L2567.24 1375.31L2447.73 1444.31L2328.21 1375.31L2328.21 1237.31z" stroke="#ffffff" stroke-width="2"></path>
        <path d="M163.14 133.31 a13.8 13.8 0 1 0 27.6 0 a13.8 13.8 0 1 0 -27.6 0zM282.66 202.31 a13.8 13.8 0 1 0 27.6 0 a13.8 13.8 0 1 0 -27.6 0zM282.66 340.31 a13.8 13.8 0 1 0 27.6 0 a13.8 13.8 0 1 0 -27.6 0zM163.14 409.31 a13.8 13.8 0 1 0 27.6 0 a13.8 13.8 0 1 0 -27.6 0zM43.63 340.31 a13.8 13.8 0 1 0 27.6 0 a13.8 13.8 0 1 0 -27.6 0zM43.63 202.31 a13.8 13.8 0 1 0 27.6 0 a13.8 13.8 0 1 0 -27.6 0zM163.14 961.31 a13.8 13.8 0 1 0 27.6 0 a13.8 13.8 0 1 0 -27.6 0zM282.66 1030.31 a13.8 13.8 0 1 0 27.6 0 a13.8 13.8 0 1 0 -27.6 0zM282.66 1168.31 a13.8 13.8 0 1 0 27.6 0 a13.8 13.8 0 1 0 -27.6 0zM163.14 1237.31 a13.8 13.8 0 1 0 27.6 0 a13.8 13.8 0 1 0 -27.6 0zM43.63 1168.31 a13.8 13.8 0 1 0 27.6 0 a13.8 13.8 0 1 0 -27.6 0zM43.63 1030.31 a13.8 13.8 0 1 0 27.6 0 a13.8 13.8 0 1 0 -27.6 0zM163.14 1375.31 a13.8 13.8 0 1 0 27.6 0 a13.8 13.8 0 1 0 -27.6 0zM43.63 1444.31 a13.8 13.8 0 1 0 27.6 0 a13.8 13.8 0 1 0 -27.6 0zM-75.88 1375.31 a13.8 13.8 0 1 0 27.6 0 a13.8 13.8 0 1 0 -27.6 0zM-75.88 1237.31 a13.8 13.8 0 1 0 27.6 0 a13.8 13.8 0 1 0 -27.6 0zM402.17 133.31 a13.8 13.8 0 1 0 27.6 0 a13.8 13.8 0 1 0 -27.6 0zM521.69 202.31 a13.8 13.8 0 1 0 27.6 0 a13.8 13.8 0 1 0 -27.6 0zM521.69 340.31 a13.8 13.8 0 1 0 27.6 0 a13.8 13.8 0 1 0 -27.6 0zM402.17 409.31 a13.8 13.8 0 1 0 27.6 0 a13.8 13.8 0 1 0 -27.6 0zM282.66 754.31 a13.8 13.8 0 1 0 27.6 0 a13.8 13.8 0 1 0 -27.6 0zM402.17 823.31 a13.8 13.8 0 1 0 27.6 0 a13.8 13.8 0 1 0 -27.6 0zM402.17 961.31 a13.8 13.8 0 1 0 27.6 0 a13.8 13.8 0 1 0 -27.6 0zM163.14 823.31 a13.8 13.8 0 1 0 27.6 0 a13.8 13.8 0 1 0 -27.6 0zM402.17 1375.31 a13.8 13.8 0 1 0 27.6 0 a13.8 13.8 0 1 0 -27.6 0zM521.69 1444.31 a13.8 13.8 0 1 0 27.6 0 a13.8 13.8 0 1 0 -27.6 0zM521.69 1582.31 a13.8 13.8 0 1 0 27.6 0 a13.8 13.8 0 1 0 -27.6 0zM402.17 1651.31 a13.8 13.8 0 1 0 27.6 0 a13.8 13.8 0 1 0 -27.6 0zM282.66 1582.31 a13.8 13.8 0 1 0 27.6 0 a13.8 13.8 0 1 0 -27.6 0zM282.66 1444.31 a13.8 13.8 0 1 0 27.6 0 a13.8 13.8 0 1 0 -27.6 0zM521.69 -73.69 a13.8 13.8 0 1 0 27.6 0 a13.8 13.8 0 1 0 -27.6 0zM641.2 -4.69 a13.8 13.8 0 1 0 27.6 0 a13.8 13.8 0 1 0 -27.6 0zM641.2 133.31 a13.8 13.8 0 1 0 27.6 0 a13.8 13.8 0 1 0 -27.6 0zM402.17 -4.69 a13.8 13.8 0 1 0 27.6 0 a13.8 13.8 0 1 0 -27.6 0zM760.72 202.31 a13.8 13.8 0 1 0 27.6 0 a13.8 13.8 0 1 0 -27.6 0zM760.72 340.31 a13.8 13.8 0 1 0 27.6 0 a13.8 13.8 0 1 0 -27.6 0zM641.2 409.31 a13.8 13.8 0 1 0 27.6 0 a13.8 13.8 0 1 0 -27.6 0zM641.2 547.31 a13.8 13.8 0 1 0 27.6 0 a13.8 13.8 0 1 0 -27.6 0zM760.72 616.31 a13.8 13.8 0 1 0 27.6 0 a13.8 13.8 0 1 0 -27.6 0zM760.72 754.31 a13.8 13.8 0 1 0 27.6 0 a13.8 13.8 0 1 0 -27.6 0zM641.2 823.31 a13.8 13.8 0 1 0 27.6 0 a13.8 13.8 0 1 0 -27.6 0zM521.69 754.31 a13.8 13.8 0 1 0 27.6 0 a13.8 13.8 0 1 0 -27.6 0zM521.69 616.31 a13.8 13.8 0 1 0 27.6 0 a13.8 13.8 0 1 0 -27.6 0zM641.2 961.31 a13.8 13.8 0 1 0 27.6 0 a13.8 13.8 0 1 0 -27.6 0zM521.69 1030.31 a13.8 13.8 0 1 0 27.6 0 a13.8 13.8 0 1 0 -27.6 0zM760.72 -73.69 a13.8 13.8 0 1 0 27.6 0 a13.8 13.8 0 1 0 -27.6 0zM880.23 -4.69 a13.8 13.8 0 1 0 27.6 0 a13.8 13.8 0 1 0 -27.6 0zM880.23 133.31 a13.8 13.8 0 1 0 27.6 0 a13.8 13.8 0 1 0 -27.6 0zM999.75 202.31 a13.8 13.8 0 1 0 27.6 0 a13.8 13.8 0 1 0 -27.6 0zM999.75 340.31 a13.8 13.8 0 1 0 27.6 0 a13.8 13.8 0 1 0 -27.6 0zM880.23 409.31 a13.8 13.8 0 1 0 27.6 0 a13.8 13.8 0 1 0 -27.6 0zM760.72 1168.31 a13.8 13.8 0 1 0 27.6 0 a13.8 13.8 0 1 0 -27.6 0zM880.23 1237.31 a13.8 13.8 0 1 0 27.6 0 a13.8 13.8 0 1 0 -27.6 0zM880.23 1375.31 a13.8 13.8 0 1 0 27.6 0 a13.8 13.8 0 1 0 -27.6 0zM760.72 1444.31 a13.8 13.8 0 1 0 27.6 0 a13.8 13.8 0 1 0 -27.6 0zM641.2 1375.31 a13.8 13.8 0 1 0 27.6 0 a13.8 13.8 0 1 0 -27.6 0zM641.2 1237.31 a13.8 13.8 0 1 0 27.6 0 a13.8 13.8 0 1 0 -27.6 0zM999.75 754.31 a13.8 13.8 0 1 0 27.6 0 a13.8 13.8 0 1 0 -27.6 0zM1119.26 823.31 a13.8 13.8 0 1 0 27.6 0 a13.8 13.8 0 1 0 -27.6 0zM1119.26 961.31 a13.8 13.8 0 1 0 27.6 0 a13.8 13.8 0 1 0 -27.6 0zM999.75 1030.31 a13.8 13.8 0 1 0 27.6 0 a13.8 13.8 0 1 0 -27.6 0zM880.23 961.31 a13.8 13.8 0 1 0 27.6 0 a13.8 13.8 0 1 0 -27.6 0zM880.23 823.31 a13.8 13.8 0 1 0 27.6 0 a13.8 13.8 0 1 0 -27.6 0zM1238.78 1030.31 a13.8 13.8 0 1 0 27.6 0 a13.8 13.8 0 1 0 -27.6 0zM1238.78 1168.31 a13.8 13.8 0 1 0 27.6 0 a13.8 13.8 0 1 0 -27.6 0zM1119.26 1237.31 a13.8 13.8 0 1 0 27.6 0 a13.8 13.8 0 1 0 -27.6 0zM999.75 1168.31 a13.8 13.8 0 1 0 27.6 0 a13.8 13.8 0 1 0 -27.6 0zM1119.26 1375.31 a13.8 13.8 0 1 0 27.6 0 a13.8 13.8 0 1 0 -27.6 0zM999.75 1444.31 a13.8 13.8 0 1 0 27.6 0 a13.8 13.8 0 1 0 -27.6 0zM1358.29 1375.31 a13.8 13.8 0 1 0 27.6 0 a13.8 13.8 0 1 0 -27.6 0zM1477.81 1444.31 a13.8 13.8 0 1 0 27.6 0 a13.8 13.8 0 1 0 -27.6 0zM1477.81 1582.31 a13.8 13.8 0 1 0 27.6 0 a13.8 13.8 0 1 0 -27.6 0zM1358.29 1651.31 a13.8 13.8 0 1 0 27.6 0 a13.8 13.8 0 1 0 -27.6 0zM1238.78 1582.31 a13.8 13.8 0 1 0 27.6 0 a13.8 13.8 0 1 0 -27.6 0zM1238.78 1444.31 a13.8 13.8 0 1 0 27.6 0 a13.8 13.8 0 1 0 -27.6 0zM1597.32 1375.31 a13.8 13.8 0 1 0 27.6 0 a13.8 13.8 0 1 0 -27.6 0zM1716.84 1444.31 a13.8 13.8 0 1 0 27.6 0 a13.8 13.8 0 1 0 -27.6 0zM1716.84 1582.31 a13.8 13.8 0 1 0 27.6 0 a13.8 13.8 0 1 0 -27.6 0zM1597.32 1651.31 a13.8 13.8 0 1 0 27.6 0 a13.8 13.8 0 1 0 -27.6 0zM1716.84 340.31 a13.8 13.8 0 1 0 27.6 0 a13.8 13.8 0 1 0 -27.6 0zM1836.35 409.31 a13.8 13.8 0 1 0 27.6 0 a13.8 13.8 0 1 0 -27.6 0zM1836.35 547.31 a13.8 13.8 0 1 0 27.6 0 a13.8 13.8 0 1 0 -27.6 0zM1716.84 616.31 a13.8 13.8 0 1 0 27.6 0 a13.8 13.8 0 1 0 -27.6 0zM1597.32 547.31 a13.8 13.8 0 1 0 27.6 0 a13.8 13.8 0 1 0 -27.6 0zM1597.32 409.31 a13.8 13.8 0 1 0 27.6 0 a13.8 13.8 0 1 0 -27.6 0zM1836.35 961.31 a13.8 13.8 0 1 0 27.6 0 a13.8 13.8 0 1 0 -27.6 0zM1955.87 1030.31 a13.8 13.8 0 1 0 27.6 0 a13.8 13.8 0 1 0 -27.6 0zM1955.87 1168.31 a13.8 13.8 0 1 0 27.6 0 a13.8 13.8 0 1 0 -27.6 0zM1836.35 1237.31 a13.8 13.8 0 1 0 27.6 0 a13.8 13.8 0 1 0 -27.6 0zM1716.84 1168.31 a13.8 13.8 0 1 0 27.6 0 a13.8 13.8 0 1 0 -27.6 0zM1716.84 1030.31 a13.8 13.8 0 1 0 27.6 0 a13.8 13.8 0 1 0 -27.6 0zM1955.87 -73.69 a13.8 13.8 0 1 0 27.6 0 a13.8 13.8 0 1 0 -27.6 0zM2075.38 -4.69 a13.8 13.8 0 1 0 27.6 0 a13.8 13.8 0 1 0 -27.6 0zM2075.38 133.31 a13.8 13.8 0 1 0 27.6 0 a13.8 13.8 0 1 0 -27.6 0zM1955.87 202.31 a13.8 13.8 0 1 0 27.6 0 a13.8 13.8 0 1 0 -27.6 0zM1836.35 133.31 a13.8 13.8 0 1 0 27.6 0 a13.8 13.8 0 1 0 -27.6 0zM1836.35 -4.69 a13.8 13.8 0 1 0 27.6 0 a13.8 13.8 0 1 0 -27.6 0zM2314.41 1375.31 a13.8 13.8 0 1 0 27.6 0 a13.8 13.8 0 1 0 -27.6 0zM2433.93 1444.31 a13.8 13.8 0 1 0 27.6 0 a13.8 13.8 0 1 0 -27.6 0zM2433.93 1582.31 a13.8 13.8 0 1 0 27.6 0 a13.8 13.8 0 1 0 -27.6 0zM2314.41 1651.31 a13.8 13.8 0 1 0 27.6 0 a13.8 13.8 0 1 0 -27.6 0zM2194.9 1582.31 a13.8 13.8 0 1 0 27.6 0 a13.8 13.8 0 1 0 -27.6 0zM2194.9 1444.31 a13.8 13.8 0 1 0 27.6 0 a13.8 13.8 0 1 0 -27.6 0zM2433.93 1168.31 a13.8 13.8 0 1 0 27.6 0 a13.8 13.8 0 1 0 -27.6 0zM2553.44 1237.31 a13.8 13.8 0 1 0 27.6 0 a13.8 13.8 0 1 0 -27.6 0zM2553.44 1375.31 a13.8 13.8 0 1 0 27.6 0 a13.8 13.8 0 1 0 -27.6 0zM2314.41 1237.31 a13.8 13.8 0 1 0 27.6 0 a13.8 13.8 0 1 0 -27.6 0z" fill="#ffffff"></path>
        <path d="M11.55 263.27L92.96 310.27L92.96 404.27L11.55 451.27L-69.86 404.27L-69.86 310.27zM11.55 545.27L92.96 592.27L92.96 686.27L11.55 733.27L-69.86 686.27L-69.86 592.27zM92.96 968.27L174.37 1015.27L174.37 1109.27L92.96 1156.27L11.55 1109.27L11.55 1015.27zM255.78 122.27L337.18 169.27L337.18 263.27L255.78 310.27L174.37 263.27L174.37 169.27zM174.37 263.27L255.78 310.27L255.78 404.27L174.37 451.27L92.96 404.27L92.96 310.27zM255.78 1250.27L337.18 1297.27L337.18 1391.27L255.78 1438.27L174.37 1391.27L174.37 1297.27zM418.59 404.27L500 451.27L500 545.27L418.59 592.27L337.18 545.27L337.18 451.27zM500 263.27L581.41 310.27L581.41 404.27L500 451.27L418.59 404.27L418.59 310.27zM500 545.27L581.41 592.27L581.41 686.27L500 733.27L418.59 686.27L418.59 592.27zM500 827.27L581.41 874.27L581.41 968.27L500 1015.27L418.59 968.27L418.59 874.27zM500 1391.27L581.41 1438.27L581.41 1532.27L500 1579.27L418.59 1532.27L418.59 1438.27zM744.23 122.27L825.64 169.27L825.64 263.27L744.23 310.27L662.82 263.27L662.82 169.27zM662.82 263.27L744.23 310.27L744.23 404.27L662.82 451.27L581.41 404.27L581.41 310.27zM662.82 545.27L744.23 592.27L744.23 686.27L662.82 733.27L581.41 686.27L581.41 592.27zM662.82 1109.27L744.23 1156.27L744.23 1250.27L662.82 1297.27L581.41 1250.27L581.41 1156.27zM825.64 827.27L907.05 874.27L907.05 968.27L825.64 1015.27L744.23 968.27L744.23 874.27zM988.45 1109.27L1069.86 1156.27L1069.86 1250.27L988.45 1297.27L907.05 1250.27L907.05 1156.27zM1151.27 -18.73L1232.68 28.27L1232.68 122.27L1151.27 169.27L1069.86 122.27L1069.86 28.27zM1232.68 404.27L1314.09 451.27L1314.09 545.27L1232.68 592.27L1151.27 545.27L1151.27 451.27zM1151.27 827.27L1232.68 874.27L1232.68 968.27L1151.27 1015.27L1069.86 968.27L1069.86 874.27zM1232.68 1250.27L1314.09 1297.27L1314.09 1391.27L1232.68 1438.27L1151.27 1391.27L1151.27 1297.27zM1314.09 545.27L1395.5 592.27L1395.5 686.27L1314.09 733.27L1232.68 686.27L1232.68 592.27zM1395.5 686.27L1476.91 733.27L1476.91 827.27L1395.5 874.27L1314.09 827.27L1314.09 733.27zM1314.09 827.27L1395.5 874.27L1395.5 968.27L1314.09 1015.27L1232.68 968.27L1232.68 874.27zM1476.91 263.27L1558.32 310.27L1558.32 404.27L1476.91 451.27L1395.5 404.27L1395.5 310.27zM1558.32 404.27L1639.72 451.27L1639.72 545.27L1558.32 592.27L1476.91 545.27L1476.91 451.27zM1476.91 827.27L1558.32 874.27L1558.32 968.27L1476.91 1015.27L1395.5 968.27L1395.5 874.27zM1558.32 968.27L1639.72 1015.27L1639.72 1109.27L1558.32 1156.27L1476.91 1109.27L1476.91 1015.27zM1476.91 1109.27L1558.32 1156.27L1558.32 1250.27L1476.91 1297.27L1395.5 1250.27L1395.5 1156.27zM1476.91 1391.27L1558.32 1438.27L1558.32 1532.27L1476.91 1579.27L1395.5 1532.27L1395.5 1438.27zM1639.72 263.27L1721.13 310.27L1721.13 404.27L1639.72 451.27L1558.32 404.27L1558.32 310.27zM1639.72 827.27L1721.13 874.27L1721.13 968.27L1639.72 1015.27L1558.32 968.27L1558.32 874.27zM1802.54 -18.73L1883.95 28.27L1883.95 122.27L1802.54 169.27L1721.13 122.27L1721.13 28.27zM1883.95 686.27L1965.36 733.27L1965.36 827.27L1883.95 874.27L1802.54 827.27L1802.54 733.27zM2046.77 404.27L2128.18 451.27L2128.18 545.27L2046.77 592.27L1965.36 545.27L1965.36 451.27zM2372.4 122.27L2453.81 169.27L2453.81 263.27L2372.4 310.27L2290.99 263.27L2290.99 169.27zM2372.4 686.27L2453.81 733.27L2453.81 827.27L2372.4 874.27L2290.99 827.27L2290.99 733.27zM2372.4 1250.27L2453.81 1297.27L2453.81 1391.27L2372.4 1438.27L2290.99 1391.27L2290.99 1297.27zM2535.22 122.27L2616.63 169.27L2616.63 263.27L2535.22 310.27L2453.81 263.27L2453.81 169.27zM2453.81 263.27L2535.22 310.27L2535.22 404.27L2453.81 451.27L2372.4 404.27L2372.4 310.27z" stroke="#ffffff" stroke-width="2"></path>
    </g>
</svg>