<svg xmlns="http://www.w3.org/2000/svg" version="1.1" xmlns:xlink="http://www.w3.org/1999/xlink" xmlns:svgjs="http://svgjs.dev/svgjs" width="2560" height="1440" preserveAspectRatio="none" viewBox="0 0 2560 1440">
    <g fill="none">
        <path d="M1088.37 1563.58C1319.05 1414.15 1203.99 596.05 1604.03 592.61 2004.07 589.17 2342.3 1136.39 2635.34 1154.21" stroke="#ffffff" stroke-width="2"></path>
        <path d="M1146.87 1519.34C1353.81 1515.49 1474.64 1281.87 1928.76 1247.16 2382.87 1212.45 2458 627.24 2710.64 584.76" stroke="#ffffff" stroke-width="2"></path>
        <path d="M1231.15 1650.7C1419.65 1647.54 1526.85 1446.14 1946.17 1411.03 2365.49 1375.92 2424.32 808.76 2661.19 763.03" stroke="#ffffff" stroke-width="2"></path>
        <path d="M442.12 1487.67C674.88 1453.95 797.79 908.22 1180.43 904.62 1563.07 901.02 1549.58 1084.62 1918.74 1084.62 2287.89 1084.62 2467.07 905.91 2657.05 904.62" stroke="#ffffff" stroke-width="2"></path>
        <path d="M1377.55 1502.43C1678.33 1321.74 1663.77 310.37 2064.42 278.45 2465.07 246.53 2554.41 654.07 2751.29 667.25" stroke="#ffffff" stroke-width="2"></path>
    </g>
    <defs>
        <mask id="SvgjsMask1016">
        </mask>
    </defs>
</svg>